<?xml version="1.0" encoding="iso-8859-1"?>
<!-- Uploaded to: SVG Repo, www.svgrepo.com, Transformed by: SVG Repo Mixer Tools -->
<svg fill="#000000" height="800px" width="800px" version="1.1" id="Layer_1" xmlns="http://www.w3.org/2000/svg" xmlns:xlink="http://www.w3.org/1999/xlink" 
	 viewBox="0 0 459.699 459.699" xml:space="preserve">
<g>
	<g>
		<g>
			<path d="M425.95,1.911H193.555c-18.609,0-33.749,15.139-33.749,33.748V51.19h30.806V35.658c0-1.622,1.32-2.941,2.942-2.941
				H425.95c1.623,0,2.942,1.32,2.942,2.941v232.396c0,1.622-1.32,2.941-2.942,2.941h-18.309v30.806h18.309
				c18.609,0,33.749-15.139,33.749-33.748V35.658C459.699,17.05,444.559,1.911,425.95,1.911z"/>
			<path d="M346.34,81.997H110.407c-16.815,0-30.494,13.68-30.494,30.495v17.568h29.322v-15.8c0-1.622,1.32-2.941,2.941-2.941
				h232.396c1.622,0,2.941,1.32,2.941,2.941v232.396c0,1.622-1.32,2.941-2.941,2.941h-16.844v29.322h18.612
				c16.815,0,30.495-13.68,30.495-30.494V112.492C376.835,95.676,363.155,81.997,346.34,81.997z"/>
			<path d="M266.427,160.866H30.494C13.68,160.866,0,174.546,0,191.361v235.933c0,16.814,13.68,30.494,30.494,30.494h235.933
				c16.815,0,30.495-13.68,30.495-30.494V191.361C296.922,174.546,283.242,160.866,266.427,160.866z M264.659,428.467H32.263
				c-1.623,0-2.942-1.32-2.942-2.942V193.13c0-1.623,1.32-2.942,2.942-2.942h232.395c1.623,0,2.942,1.32,2.942,2.942v232.395h0.001
				C267.601,427.148,266.281,428.467,264.659,428.467z"/>
		</g>
	</g>
</g>
</svg>