<?xml version="1.0" ?><!-- Uploaded to: SVG Repo, www.svgrepo.com, Transformed by: SVG Repo Mixer Tools -->
<svg fill="#000000" width="800px" height="800px" viewBox="0 0 64 64" data-name="Layer 1" id="Layer_1" xmlns="http://www.w3.org/2000/svg"><title/><path d="M49.68,58.73H14.32a1.5,1.5,0,0,1-1.5-1.5V6.77a1.5,1.5,0,0,1,1.5-1.5H40.05a1.48,1.48,0,0,1,1,.37l9.63,8.46a1.49,1.49,0,0,1,.51,1.12v42A1.5,1.5,0,0,1,49.68,58.73Zm-33.86-3H48.18V15.9L39.49,8.27H15.82Z"/><path d="M49.68,16.56H40.05a1.5,1.5,0,0,1-1.5-1.5V6.77a1.5,1.5,0,1,1,3,0v6.79h8.13a1.5,1.5,0,1,1,0,3Z"/><path d="M27.43,51.79H23.07a3.5,3.5,0,0,1-3.5-3.5V43.93a3.5,3.5,0,0,1,3.5-3.5h4.36a3.5,3.5,0,0,1,3.5,3.5v4.36A3.5,3.5,0,0,1,27.43,51.79Zm-4.36-8.36a.5.5,0,0,0-.5.5v4.36a.51.51,0,0,0,.5.5h4.36a.51.51,0,0,0,.5-.5V43.93a.5.5,0,0,0-.5-.5Z"/></svg>